<svg width="512.213" height="512.213" xmlns="http://www.w3.org/2000/svg" xml:space="preserve" version="1.1">

 <g>
  <title>Layer 1</title>
  <ellipse stroke-width="0" stroke="#000" ry="254.5" rx="254.5" id="svg_23" cy="255.3935" cx="255.60651" fill="#fff"/>
  <g stroke="null" id="svg_1">
   <g stroke="null" id="svg_2">
    <g stroke="null" id="svg_3">
     <path stroke="null" id="svg_4" d="m421.83913,296.69007c-9.95634,-13.27512 -19.91267,-13.27512 -44.2506,-0.55291l-6.08464,3.74983l0,-96.67565l22.12498,0c2.2123,0 4.42525,-1.10648 4.97817,-3.31878s0,-4.42525 -1.65939,-6.08464l-99.56272,-89.60704c-17.14681,-14.93451 -42.03765,-14.93451 -58.63155,0l-99.01046,90.15995c-1.65939,1.65939 -2.2123,3.87169 -1.65939,6.08464c0.55291,1.65939 2.76587,3.31878 4.97817,3.31878l22.67854,0l0,73.64319c-13.04112,3.19497 -25.65313,10.21562 -33.7407,15.38241l0,-11.58721l-38.71952,0l0,143.81398l38.71887,0l0,-16.5939l71.90666,0c11.06281,0 22.67854,-1.10648 33.7407,-2.2123l71.90666,-11.06281c2.76587,0 5.53108,-0.55291 7.74403,-1.10648c6.63756,-1.10648 12.7222,-4.42525 18.25328,-9.40342l83.52239,-65.82267c6.63885,-5.53108 7.74468,-15.48742 2.76651,-22.12498zm-264.39585,-103.98863l88.50056,-80.20361c12.7222,-11.06281 31.5284,-11.06281 43.69704,0l88.50056,80.20361l-13.27512,0c-3.31878,0 -5.53108,2.2123 -5.53108,5.53108l0,109.15283l-29.3161,18.0666c-6.50468,3.79456 -20.97767,4.93215 -34.56975,4.97622c2.39056,-4.87446 1.19917,-10.79122 -3.59621,-18.25134c-8.84986,-12.7222 -23.78437,-20.46559 -39.82535,-20.46559l-0.55291,0l-21.01915,0c-11.61573,0 -22.67854,-3.31878 -31.5284,-9.95634c-6.08464,-4.42525 -13.27512,-6.63756 -22.12498,-6.08464l0,-77.4371c0,-3.31878 -2.2123,-5.53108 -5.53108,-5.53108l-13.82803,0l0,-0.00065zm-36.50657,221.25237l-16.5939,0l0,-121.689l16.5939,0l0,8.29695l0,107.86032l0,5.53173zm291.49965,-102.32924l-84.07595,65.26911l-0.55291,0.55291c-3.87169,3.31878 -7.74403,5.53108 -12.16864,6.08464l-0.55291,0c-2.2123,0.55291 -3.87169,0.55291 -6.08464,0.55291l-73.01314,11.06281c-10.50925,1.65939 -21.57206,2.2123 -32.08132,2.2123l-71.90731,0l0,-91.26642c8.41038,-5.9576 23.92567,-15.2424 38.10633,-18.15476c0.72015,0.16918 1.4954,0.16075 2.27259,-0.09853c5.0378,-0.67153 9.45982,-0.72533 13.27382,0.1977c2.20777,0.667 4.25607,1.68272 6.08594,3.12108c10.50925,7.74403 23.78437,12.16864 38.16596,12.16864l0.55291,0l21.01915,0c12.7222,0 23.78437,5.53108 31.5284,16.5939c1.48632,2.22916 2.22073,4.45572 2.37695,6.01399c-0.03047,0.24891 -0.08427,0.46217 -0.16464,0.62357c-1.10648,2.2123 -6.63756,4.42525 -16.04098,4.42525c-1.29705,0 -2.42232,0.42651 -3.31554,1.10648c-0.80247,0 -1.55438,0 -2.21619,0l-47.56938,0c-17.14681,0 -27.65671,8.29695 -27.65671,22.12498c0,3.31878 2.2123,5.53108 5.53108,5.53108s5.53108,-2.2123 5.53108,-5.53108c0,-2.76587 0,-11.06281 16.5939,-11.06281l47.01582,0c1.56346,0 3.62991,0 6.63756,0c0.18474,0 0.36105,0 0.55291,0c0.55291,0 1.65939,0 2.76587,0c25.99732,0.55291 50.3346,0 63.0568,-6.63756l47.56938,-29.3161c23.23145,-11.61573 25.44376,-8.84986 29.86901,-2.2123c1.10712,1.66004 1.10712,4.97882 -1.10518,6.63821z"/>
     <path stroke="null" id="svg_5" d="m237.09398,209.29533c12.16864,0 22.12498,-9.95634 22.12498,-22.12498c0,-12.16864 -9.95634,-22.12498 -22.12498,-22.12498c-12.16864,0 -22.12498,9.95634 -22.12498,22.12498c0,12.16864 9.95634,22.12498 22.12498,22.12498zm0,-33.18779c6.08464,0 11.06281,4.97817 11.06281,11.06281c0,6.08464 -4.97817,11.06281 -11.06281,11.06281c-6.08464,0 -11.06281,-4.97817 -11.06281,-11.06281c0,-6.08464 4.97817,-11.06281 11.06281,-11.06281z"/>
     <path stroke="null" id="svg_6" d="m303.46956,231.42096c-12.16864,0 -22.12498,9.95634 -22.12498,22.12498s9.95634,22.12498 22.12498,22.12498c12.16864,0 22.12498,-9.95634 22.12498,-22.12498s-9.95634,-22.12498 -22.12498,-22.12498zm0,33.18779c-6.08464,0 -11.06281,-4.97817 -11.06281,-11.06281c0,-6.08464 4.97817,-11.06281 11.06281,-11.06281s11.06281,4.97817 11.06281,11.06281c0,6.08464 -4.97817,11.06281 -11.06281,11.06281z"/>
     <path stroke="null" id="svg_7" d="m220.50008,275.67092c1.65939,0 2.76587,-0.55291 3.87169,-1.65939l99.56337,-99.56337c2.2123,-2.2123 2.2123,-5.53108 0,-7.74403s-5.53108,-2.2123 -7.74403,0l-99.56337,99.56337c-2.2123,2.2123 -2.2123,5.53108 0,7.74403c1.10648,1.10648 2.21295,1.65939 3.87234,1.65939z"/>
    </g>
   </g>
  </g>
  <g id="svg_8"/>
  <g id="svg_9"/>
  <g id="svg_10"/>
  <g id="svg_11"/>
  <g id="svg_12"/>
  <g id="svg_13"/>
  <g id="svg_14"/>
  <g id="svg_15"/>
  <g id="svg_16"/>
  <g id="svg_17"/>
  <g id="svg_18"/>
  <g id="svg_19"/>
  <g id="svg_20"/>
  <g id="svg_21"/>
  <g id="svg_22"/>
 </g>
</svg>