<?xml version="1.0" encoding="UTF-8"?>
<svg xmlns="http://www.w3.org/2000/svg" xmlns:xlink="http://www.w3.org/1999/xlink" width="1024pt" height="1024pt" viewBox="0 0 1024 1024" version="1.1">
<g id="surface1">
<path style=" stroke:none;fill-rule:nonzero;fill:rgb(100%,100%,100%);fill-opacity:1;" d="M 1020.214844 510.785156 C 1020.214844 229.675781 792.324219 1.785156 511.214844 1.785156 C 230.101562 1.785156 2.214844 229.675781 2.214844 510.785156 C 2.214844 791.898438 230.101562 1019.785156 511.214844 1019.785156 C 792.324219 1019.785156 1020.214844 791.898438 1020.214844 510.785156 Z M 1020.214844 510.785156 "/>
<path style=" stroke:none;fill-rule:nonzero;fill:rgb(0%,0%,0%);fill-opacity:1;" d="M 843.679688 593.378906 C 823.765625 566.828125 803.851562 566.828125 755.175781 592.273438 L 743.007812 599.773438 L 743.007812 406.421875 L 787.257812 406.421875 C 791.683594 406.421875 796.109375 404.210938 797.214844 399.785156 C 798.320312 395.359375 797.214844 390.933594 793.894531 387.617188 L 594.769531 208.402344 C 560.476562 178.53125 510.695312 178.53125 477.507812 208.402344 L 279.484375 388.722656 C 276.167969 392.039062 275.0625 396.464844 276.167969 400.890625 C 277.273438 404.210938 281.699219 407.527344 286.125 407.527344 L 331.480469 407.527344 L 331.480469 554.816406 C 305.398438 561.203125 280.175781 575.246094 264 585.578125 L 264 562.40625 L 186.558594 562.40625 L 186.558594 850.035156 L 263.996094 850.035156 L 263.996094 816.84375 L 407.8125 816.84375 C 429.9375 816.84375 453.167969 814.632812 475.292969 812.421875 L 619.105469 790.296875 C 624.636719 790.296875 630.167969 789.1875 634.59375 788.082031 C 647.867188 785.871094 660.039062 779.230469 671.101562 769.277344 L 838.144531 637.628906 C 851.421875 626.566406 853.632812 606.65625 843.679688 593.378906 Z M 314.886719 385.402344 L 491.886719 224.996094 C 517.332031 202.871094 554.945312 202.871094 579.28125 224.996094 L 756.28125 385.402344 L 729.734375 385.402344 C 723.09375 385.402344 718.671875 389.828125 718.671875 396.464844 L 718.671875 614.769531 L 660.039062 650.902344 C 647.027344 658.492188 618.082031 660.769531 590.898438 660.855469 C 595.679688 651.105469 593.296875 639.273438 583.707031 624.355469 C 566.007812 598.910156 536.136719 583.421875 504.054688 583.421875 L 460.910156 583.421875 C 437.679688 583.421875 415.554688 576.785156 397.855469 563.511719 C 385.683594 554.660156 371.304688 550.234375 353.605469 551.339844 L 353.605469 396.464844 C 353.605469 389.828125 349.179688 385.402344 342.542969 385.402344 Z M 241.875 827.90625 L 208.6875 827.90625 L 208.6875 584.53125 L 241.875 584.53125 Z M 824.871094 623.25 L 656.722656 753.789062 L 655.613281 754.894531 C 647.871094 761.53125 640.125 765.957031 631.277344 767.0625 L 630.171875 767.0625 C 625.746094 768.167969 622.429688 768.167969 618.003906 768.167969 L 471.976562 790.292969 C 450.957031 793.613281 428.832031 794.71875 407.8125 794.71875 L 264 794.71875 L 264 612.1875 C 280.820312 600.269531 311.851562 581.699219 340.210938 575.875 C 341.652344 576.214844 343.203125 576.199219 344.757812 575.679688 C 354.832031 574.335938 363.675781 574.226562 371.304688 576.074219 C 375.71875 577.410156 379.816406 579.441406 383.476562 582.316406 C 404.496094 597.804688 431.046875 606.652344 459.808594 606.652344 L 502.953125 606.652344 C 528.398438 606.652344 550.519531 617.714844 566.007812 639.839844 C 568.980469 644.300781 570.449219 648.753906 570.761719 651.871094 C 570.703125 652.367188 570.59375 652.792969 570.433594 653.117188 C 568.222656 657.542969 557.160156 661.96875 538.351562 661.96875 C 535.757812 661.96875 533.507812 662.820312 531.722656 664.179688 C 530.117188 664.179688 528.613281 664.179688 527.289062 664.179688 L 432.148438 664.179688 C 397.855469 664.179688 376.835938 680.773438 376.835938 708.429688 C 376.835938 715.066406 381.261719 719.492188 387.898438 719.492188 C 394.535156 719.492188 398.960938 715.066406 398.960938 708.429688 C 398.960938 702.898438 398.960938 686.304688 432.148438 686.304688 L 526.179688 686.304688 C 529.308594 686.304688 533.441406 686.304688 539.457031 686.304688 C 539.824219 686.304688 540.175781 686.304688 540.5625 686.304688 C 541.667969 686.304688 543.878906 686.304688 546.09375 686.304688 C 598.085938 687.410156 646.761719 686.304688 672.207031 673.03125 L 767.34375 614.398438 C 813.808594 591.164062 818.234375 596.699219 827.082031 609.972656 C 829.296875 613.292969 829.296875 619.929688 824.871094 623.25 Z M 824.871094 623.25 "/>
<path style=" stroke:none;fill-rule:nonzero;fill:rgb(0%,0%,0%);fill-opacity:1;" d="M 474.1875 418.589844 C 498.523438 418.589844 518.4375 398.679688 518.4375 374.339844 C 518.4375 350.003906 498.523438 330.089844 474.1875 330.089844 C 449.851562 330.089844 429.9375 350.003906 429.9375 374.339844 C 429.9375 398.679688 449.851562 418.589844 474.1875 418.589844 Z M 474.1875 352.214844 C 486.355469 352.214844 496.3125 362.171875 496.3125 374.339844 C 496.3125 386.511719 486.355469 396.464844 474.1875 396.464844 C 462.019531 396.464844 452.0625 386.511719 452.0625 374.339844 C 452.0625 362.171875 462.019531 352.214844 474.1875 352.214844 Z M 474.1875 352.214844 "/>
<path style=" stroke:none;fill-rule:nonzero;fill:rgb(0%,0%,0%);fill-opacity:1;" d="M 606.9375 462.84375 C 582.601562 462.84375 562.6875 482.753906 562.6875 507.09375 C 562.6875 531.429688 582.601562 551.34375 606.9375 551.34375 C 631.277344 551.34375 651.1875 531.429688 651.1875 507.09375 C 651.1875 482.753906 631.277344 462.84375 606.9375 462.84375 Z M 606.9375 529.21875 C 594.769531 529.21875 584.8125 519.261719 584.8125 507.09375 C 584.8125 494.921875 594.769531 484.964844 606.9375 484.964844 C 619.109375 484.964844 629.066406 494.921875 629.066406 507.09375 C 629.066406 519.261719 619.109375 529.21875 606.9375 529.21875 Z M 606.9375 529.21875 "/>
<path style=" stroke:none;fill-rule:nonzero;fill:rgb(0%,0%,0%);fill-opacity:1;" d="M 441 551.34375 C 444.320312 551.34375 446.53125 550.234375 448.742188 548.023438 L 647.871094 348.894531 C 652.292969 344.472656 652.292969 337.835938 647.871094 333.410156 C 643.445312 328.980469 636.808594 328.984375 632.382812 333.410156 L 433.253906 532.535156 C 428.832031 536.960938 428.832031 543.597656 433.253906 548.023438 C 435.46875 550.234375 437.679688 551.34375 441 551.34375 Z M 441 551.34375 "/>
</g>
</svg>
